<svg width="162" height="13" viewBox="0 0 162 13" fill="none" xmlns="http://www.w3.org/2000/svg">
<path d="M14.4891 6.17969C14.9758 6.59302 15.2991 7.07302 15.4591 7.61969C15.6191 8.16635 15.6391 8.74302 15.5191 9.34969C15.4525 9.70969 15.3091 10.0297 15.0891 10.3097C14.8691 10.583 14.5925 10.823 14.2591 11.0297C13.9258 11.2364 13.5425 11.4097 13.1091 11.5497C12.6825 11.6897 12.2191 11.803 11.7191 11.8897C11.2258 11.9764 10.7058 12.0364 10.1591 12.0697C9.61914 12.1097 9.06914 12.1297 8.50914 12.1297C7.7558 12.1297 7.0058 12.0997 6.25914 12.0397C5.51247 11.9864 4.80914 11.9164 4.14914 11.8297C3.4958 11.7364 2.90914 11.6364 2.38914 11.5297C1.86914 11.423 1.4558 11.323 1.14914 11.2297V8.09969C1.24247 8.14635 1.42914 8.20302 1.70914 8.26969C1.98914 8.32969 2.3358 8.39302 2.74914 8.45969C3.16247 8.52635 3.6258 8.59302 4.13914 8.65969C4.65247 8.71969 5.18914 8.77635 5.74914 8.82969C6.30914 8.87635 6.87247 8.91635 7.43914 8.94969C8.01247 8.97635 8.5658 8.98969 9.09914 8.98969C9.41247 8.98969 9.70914 8.98635 9.98914 8.97969C10.2691 8.96635 10.5358 8.94635 10.7891 8.91969C11.1358 8.87969 11.3625 8.81635 11.4691 8.72969C11.5825 8.64302 11.6425 8.52969 11.6491 8.38969C11.6491 8.25635 11.6025 8.14635 11.5091 8.05969C11.4225 7.96635 11.3058 7.88969 11.1591 7.82969C11.0191 7.76969 10.8591 7.72302 10.6791 7.68969C10.5058 7.65635 10.3325 7.63302 10.1591 7.61969C9.9858 7.59969 9.8258 7.58635 9.67914 7.57969C9.53247 7.57302 9.4158 7.56635 9.32914 7.55969C9.2558 7.55302 9.14914 7.54969 9.00914 7.54969C8.8758 7.54302 8.7358 7.53635 8.58914 7.52969C8.44247 7.52302 8.30247 7.51969 8.16914 7.51969C8.0358 7.51302 7.92914 7.50969 7.84914 7.50969C7.32247 7.48302 6.75914 7.45302 6.15914 7.41969C5.55914 7.37969 4.95914 7.30969 4.35914 7.20969C3.7658 7.10302 3.1958 6.95302 2.64914 6.75969C2.10914 6.56635 1.62914 6.29635 1.20914 5.94969C0.72247 5.53635 0.399136 5.05635 0.239136 4.50969C0.0791364 3.96302 0.0591364 3.38635 0.179136 2.77969C0.285803 2.23969 0.55247 1.79302 0.979136 1.43969C1.41247 1.07969 1.94914 0.79302 2.58914 0.579686C3.22914 0.366353 3.9458 0.216354 4.73914 0.129687C5.53247 0.0430201 6.34914 -0.000313282 7.18914 -0.000313282C7.94247 -0.000313282 8.69247 0.0296869 9.43914 0.0896873C10.1858 0.143021 10.8858 0.216354 11.5391 0.309687C12.1991 0.396354 12.7891 0.49302 13.3091 0.599687C13.8291 0.706353 14.2425 0.806353 14.5491 0.899687V4.02969C14.4558 3.98302 14.2691 3.92969 13.9891 3.86969C13.7091 3.80302 13.3625 3.73635 12.9491 3.66969C12.5425 3.60302 12.0791 3.53969 11.5591 3.47969C11.0458 3.41302 10.5091 3.35635 9.94914 3.30969C9.3958 3.25635 8.83247 3.21635 8.25914 3.18969C7.6858 3.15635 7.13247 3.13969 6.59914 3.13969C6.29247 3.13969 5.9958 3.14635 5.70914 3.15969C5.42914 3.16635 5.16247 3.18302 4.90914 3.20969C4.56247 3.24302 4.33247 3.30635 4.21914 3.39969C4.11247 3.48635 4.05914 3.59969 4.05914 3.73969C4.05914 3.87302 4.10247 3.98635 4.18914 4.07969C4.28247 4.16635 4.39914 4.23969 4.53914 4.29969C4.6858 4.35969 4.8458 4.40635 5.01914 4.43969C5.19247 4.47302 5.3658 4.49969 5.53914 4.51969C5.71247 4.53302 5.87247 4.54302 6.01914 4.54969C6.1658 4.54969 6.28247 4.55302 6.36914 4.55969C6.44247 4.56635 6.5458 4.57302 6.67914 4.57969C6.81914 4.58635 6.96247 4.59302 7.10914 4.59969C7.2558 4.59969 7.3958 4.60302 7.52914 4.60969C7.66247 4.60969 7.76914 4.61302 7.84914 4.61969C8.3758 4.64635 8.93914 4.67969 9.53914 4.71969C10.1391 4.75302 10.7358 4.82302 11.3291 4.92969C11.9291 5.02969 12.4991 5.17635 13.0391 5.36969C13.5858 5.56302 14.0691 5.83302 14.4891 6.17969ZM17.5991 0.199687H21.5891V11.9297H17.5991V0.199687ZM39.1444 11.9397H24.4644V11.9097V0.189687H39.1444V2.93969H28.4544V4.68969H38.5544V7.43969H28.4544V9.18969H39.1444V11.9397ZM54.9441 8.78969V11.9297H41.1441V0.199687H45.1341V8.78969H54.9441ZM64.7448 8.93969C65.3382 8.93969 65.9315 8.90635 66.5248 8.83969C67.1248 8.76635 67.6648 8.62969 68.1448 8.42969C68.6248 8.22969 69.0148 7.94635 69.3148 7.57969C69.6215 7.20635 69.7815 6.71635 69.7948 6.10969C69.7948 5.71635 69.7215 5.37302 69.5748 5.07969C69.4348 4.78635 69.2448 4.53635 69.0048 4.32969C68.7648 4.11635 68.4815 3.94302 68.1548 3.80969C67.8282 3.67635 67.4782 3.56969 67.1048 3.48969C66.7315 3.40969 66.3415 3.35635 65.9348 3.32969C65.5348 3.29635 65.1382 3.27635 64.7448 3.26969C64.3515 3.26969 63.9515 3.28635 63.5448 3.31969C63.1448 3.35302 62.7582 3.40969 62.3848 3.48969C62.0182 3.56969 61.6715 3.67635 61.3448 3.80969C61.0182 3.94302 60.7315 4.11635 60.4848 4.32969C60.2448 4.53635 60.0548 4.78635 59.9148 5.07969C59.7748 5.37302 59.7015 5.71635 59.6948 6.10969C59.7082 6.50969 59.7848 6.85969 59.9248 7.15969C60.0715 7.45302 60.2648 7.70635 60.5048 7.91969C60.7448 8.12635 61.0248 8.29635 61.3448 8.42969C61.6715 8.56302 62.0215 8.66635 62.3948 8.73969C62.7682 8.81302 63.1548 8.86635 63.5548 8.89969C63.9548 8.92635 64.3515 8.93969 64.7448 8.93969ZM64.7448 8.94969C64.7582 8.94969 64.7615 8.94969 64.7548 8.94969C64.7548 8.94302 64.7515 8.93969 64.7448 8.93969C64.7382 8.93969 64.7348 8.94302 64.7348 8.94969C64.7348 8.94969 64.7382 8.94969 64.7448 8.94969ZM64.7448 0.0896873C65.4582 0.0763534 66.1748 0.0863531 66.8948 0.119686C67.6215 0.15302 68.3182 0.236354 68.9848 0.369687C69.6582 0.503021 70.2882 0.699687 70.8748 0.959687C71.4615 1.21969 71.9715 1.57635 72.4048 2.02969C72.8382 2.47635 73.1782 3.03302 73.4248 3.69969C73.6782 4.36635 73.8015 5.16969 73.7948 6.10969C73.8015 7.02302 73.6782 7.80969 73.4248 8.46969C73.1782 9.12969 72.8382 9.68302 72.4048 10.1297C71.9715 10.5764 71.4615 10.9364 70.8748 11.2097C70.2882 11.4764 69.6582 11.6797 68.9848 11.8197C68.3182 11.9597 67.6215 12.0464 66.8948 12.0797C66.1748 12.1197 65.4582 12.133 64.7448 12.1197C64.0382 12.133 63.3215 12.1197 62.5948 12.0797C61.8682 12.0464 61.1682 11.9597 60.4948 11.8197C59.8282 11.6797 59.2015 11.4764 58.6148 11.2097C58.0348 10.9364 57.5248 10.5764 57.0848 10.1297C56.6515 9.68302 56.3115 9.12969 56.0648 8.46969C55.8182 7.80969 55.6948 7.02302 55.6948 6.10969C55.6948 5.16969 55.8182 4.36635 56.0648 3.69969C56.3115 3.03302 56.6515 2.47635 57.0848 2.02969C57.5248 1.57635 58.0348 1.21969 58.6148 0.959687C59.2015 0.699687 59.8282 0.503021 60.4948 0.369687C61.1682 0.236354 61.8682 0.15302 62.5948 0.119686C63.3215 0.0863531 64.0382 0.0763534 64.7448 0.0896873ZM91.7925 0.209687H97.3325V11.9197H93.3725H93.3525V4.92969L88.7125 11.9097L88.7225 11.9197H88.7125H84.4125H84.4025L84.4125 11.9097L79.7825 4.92969V11.9197H79.7525H75.7925V0.209687H81.3325L86.5625 8.49969L91.7925 0.209687ZM103.327 10.4997C103.327 10.8397 103.281 11.113 103.187 11.3197C103.094 11.5197 102.964 11.6764 102.797 11.7897C102.631 11.903 102.437 11.9764 102.217 12.0097C101.997 12.043 101.757 12.0597 101.497 12.0597C101.191 12.0597 100.904 12.0497 100.637 12.0297C100.377 12.0097 100.151 11.9497 99.9574 11.8497C99.7641 11.7497 99.6108 11.5964 99.4974 11.3897C99.3908 11.1764 99.3374 10.8797 99.3374 10.4997C99.3374 10.153 99.3841 9.87969 99.4774 9.67969C99.5708 9.47302 99.6974 9.31635 99.8574 9.20969C100.017 9.09635 100.207 9.02302 100.427 8.98969C100.647 8.95635 100.884 8.93969 101.137 8.93969C101.451 8.93969 101.741 8.94969 102.007 8.96969C102.274 8.98302 102.504 9.03969 102.697 9.13969C102.891 9.23969 103.044 9.39635 103.157 9.60969C103.271 9.81635 103.327 10.113 103.327 10.4997ZM128.501 0.219687L121.461 11.9497H116.391L114.891 9.45969L113.401 11.9497H108.331L101.291 0.219687H105.831L110.871 8.67969L112.641 5.69969L109.351 0.219687H113.891L114.891 1.91969L115.901 0.219687H120.441L117.151 5.69969L118.921 8.67969L123.961 0.219687H128.501ZM143.471 11.9397H128.791V11.9097V0.189687H143.471V2.93969H132.781V4.68969H142.881V7.43969H132.781V9.18969H143.471V11.9397ZM161.592 8.66969C161.592 9.11635 161.505 9.53969 161.332 9.93969C161.165 10.333 160.935 10.6764 160.642 10.9697C160.349 11.263 160.005 11.4964 159.612 11.6697C159.219 11.8364 158.799 11.9197 158.352 11.9197H152.062C150.229 11.9264 148.145 11.9297 145.812 11.9297V0.199687H157.612C158.045 0.199687 158.449 0.28302 158.822 0.449687C159.202 0.609687 159.532 0.829687 159.812 1.10969C160.092 1.38969 160.312 1.71969 160.472 2.09969C160.639 2.47302 160.722 2.87635 160.722 3.30969C160.722 3.52969 160.692 3.74969 160.632 3.96969C160.579 4.18969 160.502 4.40635 160.402 4.61969C160.309 4.82635 160.195 5.02302 160.062 5.20969C159.935 5.39635 159.799 5.55969 159.652 5.69969C159.939 5.82635 160.199 5.98969 160.432 6.18969C160.672 6.38969 160.875 6.61969 161.042 6.87969C161.215 7.13302 161.349 7.41302 161.442 7.71969C161.542 8.01969 161.592 8.33635 161.592 8.66969ZM156.742 9.17969C156.982 9.17969 157.185 9.09635 157.352 8.92969C157.525 8.75635 157.612 8.54969 157.612 8.30969C157.612 8.06969 157.525 7.86635 157.352 7.69969C157.185 7.52635 156.982 7.43969 156.742 7.43969H149.802V9.17969H156.742ZM149.802 4.68969H156.192C156.432 4.68969 156.635 4.60635 156.802 4.43969C156.975 4.26635 157.062 4.05969 157.062 3.81969C157.062 3.57969 156.975 3.37635 156.802 3.20969C156.635 3.03635 156.432 2.94969 156.192 2.94969H149.802V4.68969Z" fill="white"/>
</svg>
