<svg xmlns="http://www.w3.org/2000/svg" viewBox="30 395 520 125" fill="none" aria-hidden="true">
  <path fill="#87CFEC" d="M182.76,430.72c13.75-17.56,31.23-21.56,49.53-17.56c14.41,3.15,28.35,9.71,41.57,16.57c10.71,5.56,20.02,13.82,29.96,20.86c41.99,29.74,86.92,49.26,140.21,39.72c0.23,1.41,0.46,2.82,0.69,4.24c-15.14,3.51-30.33,10.11-45.4,9.85c-25.34-0.44-52.05-1.03-75.58-9.14c-43.85-15.1-85.92-15.27-129.43-1.19c-25.1,8.12-50.8,15.75-77.77,9c-7.15-1.79-14-4.74-20.78-8.18c28.79,4,55.91-0.41,80.76-14.85c8.06-4.68,15.68-11.67,20.88-19.37C206.84,446.67,201.14,435.12,182.76,430.72z"/>
  <path fill="#87CFEC" d="M281.65,409.69c4.69-9.14,10.81-21.12,1.4-31.98c-4.59-5.3-13.58-6.8-20.97-10.21c4.45-7.17,14.3-9.95,24.62-10.8c18.94-1.57,36.01,3.87,49.75,17.12c13.91,13.42,27.22,27.49,40.47,41.57c28.47,30.25,61.29,51.18,104.74,49.64c6.22-0.22,12.4-1.39,18.41-1.11C415.36,498.46,345.58,468.04,281.65,409.69z"/>
</svg>
