<svg width="218" height="249" viewBox="0 0 218 249" fill="none" xmlns="http://www.w3.org/2000/svg">
<path fill-rule="evenodd" clip-rule="evenodd" d="M43.0471 63.3467C53.1085 56.848 63.5942 47.0057 81.4245 40.3366C68.3722 40.4105 47.8472 48.7589 43.0471 63.3467Z" fill="white"/>
<path fill-rule="evenodd" clip-rule="evenodd" d="M54.6295 65.4484C52.5108 66.4101 50.9491 67.0267 49.1928 67.4563C45.9191 68.2553 43.1876 68.4889 40.3735 69.4462C38.109 70.2105 36.2835 71.3456 34.6894 72.7114C33.2337 73.9535 32.1611 75.0887 31.3243 76.3067C30.2045 77.9378 29.1865 80.1824 28.6413 82.3441C32.8698 76.2615 37.9881 73.2526 42.5555 72.5727C34.598 76.9368 31.9283 81.4381 28.2258 85.2144V85.4209C29.5489 84.0491 30.7408 82.9999 32.0182 82.0592C33.9733 80.6151 35.8975 79.6005 37.994 78.7126C39.5234 78.0659 40.8715 77.4599 42.1326 76.8102C47.6532 73.9626 50.8901 69.805 54.6295 65.4484Z" fill="white"/>
<path fill-rule="evenodd" clip-rule="evenodd" d="M28.1776 85.5078C28.1776 85.4083 28.1805 85.3073 28.1835 85.2048L28.1201 85.4038L28.1776 85.5078ZM29.2781 80.5558C30.5806 77.0509 32.7537 73.3516 34.2138 71.5803C35.7873 69.6748 36.9262 67.5252 37.9958 65.2926C39.8905 61.3415 41.5068 56.8266 42.0269 53.4001C39.6195 54.885 37.2327 56.3307 34.5217 58.4125C28.8509 63.0676 25.6773 68.0663 26.4228 74.9163C26.6556 77.0675 26.7661 81.3366 27.5809 84.0591C27.2744 74.7053 30.4067 68.1749 34.4952 64.6851C30.694 71.3557 30.0899 76.1298 29.2781 80.5558Z" fill="white"/>
<path fill-rule="evenodd" clip-rule="evenodd" d="M38.216 86.236C36.3552 87.534 34.9599 88.4038 33.3348 89.1183C30.3057 90.457 27.6787 91.1489 25.1328 92.5599C23.0848 93.692 21.5497 95.1181 20.2929 96.7235C19.1496 98.1888 18.351 99.4807 17.8059 100.819C17.0132 102.759 16.4991 105.392 16.5315 107.755C19.3971 100.785 23.8112 96.6753 28.1693 95.002C22.1021 100.301 20.0881 104.804 17.7485 108.883C18.41 107.941 19.07 107.121 19.7817 106.344C21.3743 104.597 23.0303 103.275 24.8867 102.052C26.2422 101.16 27.4282 100.338 28.5155 99.4867C33.2936 95.7618 35.5286 91.1398 38.216 86.236Z" fill="white"/>
<path fill-rule="evenodd" clip-rule="evenodd" d="M16.7902 110.379C16.6488 109.773 16.5766 109.087 16.5618 108.351C16.5559 108.906 16.5383 109.464 16.5014 110.026C16.5957 110.153 16.693 110.272 16.7902 110.379ZM16.5633 107.682C16.6561 103.538 18.3136 98.1201 19.5748 95.7021C20.6901 93.5645 21.3222 91.2596 21.8688 88.8884C22.8382 84.6976 23.4084 79.9973 23.1417 76.5497C21.1159 78.4084 19.0989 80.2324 16.9125 82.7303C12.3982 88.2567 10.4121 93.6972 12.684 100.288C13.2689 101.988 14.0955 105.103 15.1548 107.566C13.5592 99.4919 15.1842 93.1515 18.1692 89.1522C15.5894 97.5473 16.5265 102.599 16.5633 107.682Z" fill="white"/>
<path fill-rule="evenodd" clip-rule="evenodd" d="M28.3556 107.049C26.8498 108.944 25.6829 110.251 24.2155 111.458C21.481 113.713 18.938 115.167 16.7428 117.367C14.9792 119.139 13.8654 121.068 13.1154 123.126C12.4333 125 12.0561 126.592 11.9633 128.167C11.8174 130.66 12.3243 133.938 13.4042 136.58C13.8182 127.712 17.2246 121.676 21.3676 118.537C15.9 126.97 16.0989 132.475 14.1187 138.079C14.2013 138.225 14.2852 138.37 14.3736 138.51C14.848 136.567 15.3932 134.999 16.0857 133.503C17.145 131.209 18.4224 129.349 19.9517 127.537C21.067 126.213 22.0305 125.016 22.8792 123.815C26.5993 118.537 27.2889 113.005 28.3556 107.049Z" fill="white"/>
<path fill-rule="evenodd" clip-rule="evenodd" d="M14.3766 138.621C14.0024 138.009 13.6724 137.294 13.3851 136.507C13.5781 137.097 13.7578 137.695 13.9184 138.31C14.0731 138.425 14.2263 138.529 14.3766 138.621ZM13.1331 135.767C11.732 131.335 11.5183 125.147 11.9765 122.234C12.3788 119.658 12.2108 117.034 11.9265 114.358C11.4255 109.63 10.3102 104.47 8.77057 100.875C7.29576 103.411 5.81655 105.902 4.3992 109.162C1.61313 116.283 1.48937 122.616 6.31748 129.009C7.60076 130.711 9.71352 133.949 11.8071 136.302C6.55764 128.02 5.75172 120.278 7.45342 114.616C7.95582 125.053 11.1353 130.076 13.1331 135.767Z" fill="white"/>
<path fill-rule="evenodd" clip-rule="evenodd" d="M23.7685 131.533C22.7298 133.71 21.8827 135.231 20.7114 136.711C18.5279 139.475 16.3415 141.401 14.6855 144.012C13.3521 146.109 12.7141 148.248 12.471 150.445C12.2471 152.446 12.2648 154.114 12.5609 155.706C13.0618 158.412 14.5396 161.882 16.4564 164.381C14.0534 154.641 15.9938 147.202 19.5489 142.827C15.9481 153.049 17.9091 158.406 16.8675 164.894C17.0811 165.147 17.2977 165.388 17.5201 165.614C17.5172 163.582 17.6778 161.915 18.0005 160.288C18.494 157.793 19.3191 155.697 20.4035 153.6C21.1932 152.07 21.8606 150.69 22.4146 149.332C24.8397 143.364 24.1678 137.693 23.7685 131.533Z" fill="white"/>
<path fill-rule="evenodd" clip-rule="evenodd" d="M14.4314 160.891C12.5735 156.975 11.3256 152.27 11.109 149.767C10.8807 147.111 10.0644 144.514 9.12151 141.889C7.45075 137.248 5.06837 132.288 2.63884 128.972C1.78726 131.786 0.919452 134.551 0.305073 138.08C-0.729207 145.72 0.704342 152.081 7.11481 157.593C9.45741 159.611 14.0837 164.245 17.241 165.605C7.88094 158.598 4.26541 150.358 4.37738 143.73C7.33731 152.559 11.1753 156.631 14.4314 160.891Z" fill="white"/>
<path fill-rule="evenodd" clip-rule="evenodd" d="M24.2773 154.933C24.015 157.461 23.7071 159.262 23.05 161.117C21.8271 164.566 20.2919 167.16 19.5538 170.309C18.9644 172.839 19.1 175.22 19.6628 177.551C20.1784 179.68 20.8149 181.388 21.7092 182.945C23.3726 185.838 26.5712 189.345 29.7507 191.334C23.0411 182.242 21.8993 173.618 23.7557 167.493C24.3156 179.728 28.6486 184.371 30.2501 191.634L30.4962 191.771C29.7404 189.677 29.2851 187.913 29.0111 186.148C28.5971 183.445 28.6648 181.051 29.0037 178.593C29.2483 176.796 29.4265 175.192 29.4899 173.638C29.7728 166.815 26.9749 161.162 24.2773 154.933Z" fill="white"/>
<path fill-rule="evenodd" clip-rule="evenodd" d="M30.5658 191.875C29.8262 191.465 29.063 190.933 28.2983 190.314C28.7948 190.771 29.2825 191.251 29.7628 191.762C30.0442 191.815 30.3124 191.854 30.5658 191.875ZM26.8987 189.091C23.0194 185.463 19.3125 180.081 18.0086 177.233C16.7843 174.558 14.9779 172.114 13.0317 169.672C9.59438 165.356 5.29519 160.915 1.56323 158.174C1.72825 161.31 1.8623 164.397 2.54151 168.202C4.31098 176.358 8.15049 182.514 16.7975 186.403C19.8104 187.759 25.8305 190.986 29.6435 191.74C17.1202 187.184 10.5874 179.344 8.67796 172.075C15.4509 181.985 21.5652 184.673 26.8987 189.091Z" fill="white"/>
<path fill-rule="evenodd" clip-rule="evenodd" d="M33.5691 178.25C34.2925 181.027 34.677 183.041 34.7109 185.209C34.7758 189.255 34.1643 192.475 34.6255 196.049C34.9953 198.921 36.0856 201.421 37.6105 203.741C39.0013 205.853 40.3538 207.488 41.9259 208.883C44.902 211.528 49.8406 214.375 54.0735 215.504C44.0357 208.889 39.6525 200.865 39.153 194.344C44.2139 205.966 50.0734 208.924 54.2282 215.545C54.4168 215.593 54.6039 215.638 54.7895 215.681C53.1556 213.671 51.9696 211.93 50.9824 210.129C49.4664 207.368 48.5927 204.8 47.9783 202.074C47.5304 200.087 47.0854 198.324 46.5344 196.644C44.1344 189.286 38.9129 184.093 33.5691 178.25Z" fill="white"/>
<path fill-rule="evenodd" clip-rule="evenodd" d="M54.9042 215.775C54.5889 215.703 54.2648 215.617 53.9348 215.517C38.6475 214.892 28.7437 208.598 24.0718 201.251C33.345 208.411 40.3286 210.134 46.7729 212.216C42.1894 209.533 37.7679 206.053 35.7155 203.892C33.3523 201.406 30.4616 199.333 27.4192 197.31C22.0415 193.733 15.6988 190.27 10.6365 188.46C12.0538 191.751 13.4211 195.007 15.6502 198.861C20.7686 207.032 27.2984 212.454 38.0581 214.033C42.1245 214.628 50.8408 216.521 54.9042 215.775Z" fill="white"/>
<path fill-rule="evenodd" clip-rule="evenodd" d="M53.0605 200.126C54.6856 202.247 55.8378 203.913 56.735 205.649C56.6525 205.301 56.5789 204.948 56.5096 204.594C56.3284 203.652 56.2076 202.689 56.1825 201.724C55.1512 201.196 54.1081 200.666 53.0605 200.126ZM59.8938 213.524C60.4375 214.908 61.0342 216.257 61.8313 217.611C63.0188 219.625 64.5245 221.326 66.2631 222.815V215.872C65.8918 216.22 65.4409 216.49 64.9267 216.654C63.4431 217.13 61.8946 216.589 61.0077 215.284C60.6143 214.708 60.2445 214.121 59.8938 213.524Z" fill="white"/>
<path fill-rule="evenodd" clip-rule="evenodd" d="M66.2525 225.075C62.7194 223.343 58.8151 222.173 54.7782 221.098C47.5706 219.176 39.401 217.671 33.2852 217.421C36.195 220.273 39.0341 223.11 43.0416 226.282C50.1592 231.551 57.4714 234.787 66.2525 234.988V231.567C60.4549 230.37 55.8876 227.857 52.6831 224.714C57.9591 227.104 62.3481 228.264 66.2525 228.902V225.075Z" fill="white"/>
<path fill-rule="evenodd" clip-rule="evenodd" d="M174.943 63.3467C164.882 56.848 154.394 47.0057 136.564 40.3366C149.618 40.4105 170.141 48.7589 174.943 63.3467Z" fill="white"/>
<path fill-rule="evenodd" clip-rule="evenodd" d="M163.364 65.4484C165.484 66.4101 167.046 67.0267 168.802 67.4563C172.074 68.2553 174.806 68.4889 177.62 69.4462C179.884 70.2105 181.711 71.3456 183.304 72.7114C184.759 73.9535 185.832 75.0887 186.669 76.3067C187.789 77.9378 188.807 80.1824 189.352 82.3441C185.125 76.2615 180.005 73.2526 175.439 72.5727C183.395 76.9368 186.066 81.4381 189.769 85.2144V85.4209C188.446 84.0491 187.252 82.9999 185.975 82.0592C184.021 80.6151 182.097 79.6005 179.999 78.7126C178.471 78.0659 177.122 77.4599 175.862 76.8102C170.341 73.9626 167.105 69.805 163.364 65.4484Z" fill="white"/>
<path fill-rule="evenodd" clip-rule="evenodd" d="M189.823 85.5078C189.825 85.4083 189.822 85.3073 189.818 85.2048L189.882 85.4038L189.823 85.5078ZM188.723 80.5558C187.422 77.0509 185.247 73.3516 183.787 71.5803C182.214 69.6748 181.075 67.5252 180.005 65.2926C178.11 61.3415 176.494 56.8266 175.976 53.4001C178.382 54.885 180.77 56.3307 183.479 58.4125C189.152 63.0676 192.324 68.0663 191.58 74.9163C191.347 77.0675 191.236 81.3366 190.42 84.0591C190.728 74.7053 187.596 68.1749 183.506 64.6851C187.308 71.3557 187.913 76.1298 188.723 80.5558Z" fill="white"/>
<path fill-rule="evenodd" clip-rule="evenodd" d="M179.78 86.236C181.641 87.534 183.035 88.4038 184.661 89.1183C187.689 90.457 190.316 91.1489 192.862 92.5599C194.91 93.692 196.445 95.1181 197.703 96.7235C198.847 98.1888 199.645 99.4807 200.189 100.819C200.982 102.759 201.497 105.392 201.465 107.755C198.599 100.785 194.184 96.6753 189.825 95.002C195.894 100.301 197.907 104.804 200.248 108.883C199.586 107.941 198.926 107.121 198.215 106.344C196.62 104.597 194.966 103.275 193.108 102.052C191.753 101.16 190.567 100.338 189.479 99.4867C184.701 95.7618 182.468 91.1398 179.78 86.236Z" fill="white"/>
<path fill-rule="evenodd" clip-rule="evenodd" d="M201.212 110.379C201.353 109.773 201.425 109.087 201.441 108.351C201.446 108.906 201.465 109.464 201.502 110.026C201.406 110.153 201.31 110.272 201.212 110.379ZM201.44 107.682C201.347 103.538 199.688 98.1201 198.427 95.7021C197.313 93.5645 196.681 91.2596 196.135 88.8884C195.165 84.6976 194.595 79.9973 194.862 76.5497C196.887 78.4084 198.903 80.2324 201.091 82.7303C205.605 88.2567 207.59 93.6972 205.318 100.288C204.733 101.988 203.906 105.103 202.847 107.566C204.444 99.4919 202.819 93.1515 199.834 89.1522C202.412 97.5473 201.477 102.599 201.44 107.682Z" fill="white"/>
<path fill-rule="evenodd" clip-rule="evenodd" d="M189.646 107.049C191.151 108.944 192.317 110.251 193.784 111.458C196.519 113.713 199.062 115.167 201.257 117.367C203.022 119.139 204.134 121.068 204.886 123.126C205.568 125 205.944 126.592 206.037 128.167C206.184 130.66 205.677 133.938 204.597 136.58C204.183 127.712 200.775 121.676 196.632 118.537C202.101 126.97 201.902 132.475 203.881 138.079C203.799 138.225 203.715 138.37 203.628 138.51C203.152 136.567 202.608 134.999 201.916 133.503C200.856 131.209 199.579 129.349 198.048 127.537C196.934 126.213 195.971 125.016 195.122 123.815C191.4 118.537 190.712 113.005 189.646 107.049Z" fill="white"/>
<path fill-rule="evenodd" clip-rule="evenodd" d="M203.625 138.621C204.001 138.009 204.331 137.294 204.619 136.507C204.424 137.097 204.246 137.695 204.084 138.31C203.929 138.425 203.776 138.529 203.625 138.621ZM204.869 135.767C206.272 131.335 206.484 125.147 206.027 122.234C205.623 119.658 205.791 117.034 206.077 114.358C206.578 109.63 207.692 104.47 209.232 100.875C210.706 103.411 212.187 105.902 213.603 109.162C216.389 116.283 216.513 122.616 211.686 129.009C210.401 130.711 208.29 133.949 206.196 136.302C211.444 128.02 212.252 120.278 210.55 114.616C210.046 125.053 206.868 130.076 204.869 135.767Z" fill="white"/>
<path fill-rule="evenodd" clip-rule="evenodd" d="M194.233 131.533C195.272 133.71 196.119 135.231 197.29 136.711C199.472 139.475 201.66 141.401 203.316 144.012C204.648 146.109 205.287 148.248 205.53 150.445C205.754 152.446 205.737 154.114 205.441 155.706C204.94 158.412 203.462 161.882 201.544 164.381C203.948 154.641 202.006 147.202 198.451 142.827C202.053 153.049 200.092 158.406 201.133 164.894C200.92 165.147 200.704 165.388 200.481 165.614C200.483 163.582 200.324 161.915 200 160.288C199.508 157.793 198.682 155.697 197.598 153.6C196.807 152.07 196.141 150.69 195.587 149.332C193.16 143.364 193.832 137.693 194.233 131.533Z" fill="white"/>
<path fill-rule="evenodd" clip-rule="evenodd" d="M203.569 160.891C205.427 156.975 206.673 152.27 206.89 149.767C207.12 147.111 207.934 144.514 208.879 141.889C210.548 137.248 212.932 132.288 215.36 128.972C216.213 131.786 217.081 134.551 217.695 138.08C218.729 145.72 217.294 152.081 210.885 157.593C208.541 159.611 203.917 164.245 200.759 165.605C210.118 158.598 213.733 150.358 213.623 143.73C210.662 152.559 206.823 156.631 203.569 160.891Z" fill="white"/>
<path fill-rule="evenodd" clip-rule="evenodd" d="M193.726 154.933C193.988 157.461 194.296 159.262 194.953 161.117C196.176 164.566 197.71 167.16 198.448 170.309C199.039 172.839 198.903 175.22 198.34 177.551C197.825 179.68 197.188 181.388 196.294 182.945C194.63 185.838 191.432 189.345 188.251 191.334C194.962 182.242 196.104 173.618 194.246 167.493C193.687 179.728 189.353 184.371 187.751 191.634L187.507 191.771C188.261 189.677 188.718 187.913 188.99 186.148C189.406 183.445 189.338 181.051 188.998 178.593C188.753 176.796 188.576 175.192 188.512 173.638C188.229 166.815 191.028 161.162 193.726 154.933Z" fill="white"/>
<path fill-rule="evenodd" clip-rule="evenodd" d="M187.428 191.875C188.169 191.465 188.93 190.933 189.695 190.314C189.2 190.771 188.712 191.251 188.231 191.762C187.951 191.815 187.681 191.854 187.428 191.875ZM191.095 189.091C194.974 185.463 198.682 180.081 199.986 177.233C201.211 174.558 203.016 172.114 204.962 169.672C208.401 165.356 212.698 160.915 216.432 158.174C216.265 161.31 216.133 164.397 215.453 168.202C213.682 176.358 209.844 182.514 201.196 186.403C198.183 187.759 192.165 190.986 188.352 191.74C200.875 187.184 207.408 179.344 209.317 172.075C202.544 181.985 196.428 184.673 191.095 189.091Z" fill="white"/>
<path fill-rule="evenodd" clip-rule="evenodd" d="M184.427 178.25C183.704 181.027 183.321 183.041 183.287 185.209C183.222 189.255 183.832 192.475 183.371 196.049C183.001 198.921 181.912 201.421 180.388 203.741C178.997 205.853 177.643 207.488 176.072 208.883C173.095 211.528 168.157 214.375 163.923 215.504C173.962 208.889 178.345 200.865 178.845 194.344C173.784 205.966 167.925 208.924 163.77 215.545C163.581 215.593 163.394 215.638 163.208 215.681C164.842 213.671 166.027 211.93 167.016 210.129C168.532 207.368 169.404 204.8 170.018 202.074C170.468 200.087 170.913 198.324 171.464 196.644C173.862 189.286 179.084 184.093 184.427 178.25Z" fill="white"/>
<path fill-rule="evenodd" clip-rule="evenodd" d="M163.083 215.775C163.399 215.703 163.723 215.617 164.053 215.517C179.34 214.892 189.242 208.598 193.914 201.251C184.641 208.411 177.659 210.134 171.215 212.216C175.797 209.533 180.22 206.053 182.27 203.892C184.634 201.406 187.524 199.333 190.567 197.31C195.944 193.733 202.287 190.27 207.35 188.46C205.932 191.751 204.566 195.007 202.337 198.861C197.217 207.032 190.689 212.454 179.929 214.033C175.863 214.628 167.145 216.521 163.083 215.775Z" fill="white"/>
<path fill-rule="evenodd" clip-rule="evenodd" d="M164.945 200.125C162.986 202.681 161.714 204.576 160.748 206.733C159.444 209.637 158.694 212.221 157.62 214.725V203.916C159.992 202.639 162.449 201.411 164.945 200.125Z" fill="white"/>
<path fill-rule="evenodd" clip-rule="evenodd" d="M157.62 222.73C159.439 222.131 161.312 221.604 163.216 221.097C170.423 219.175 178.594 217.671 184.709 217.421C181.799 220.273 178.96 223.11 174.954 226.281C169.483 230.331 163.898 233.178 157.62 234.372V229.75C160.707 228.44 163.283 226.704 165.312 224.714C162.52 225.978 159.976 226.898 157.62 227.579V222.73Z" fill="white"/>
<path d="M91.3948 189.924C90.0113 190.483 89.1582 190.946 87.3534 191.326V225.735L84.2948 223.378L81.0416 225.735V192.794C76.5347 193.406 74.2791 191.936 74.2791 191.936V242.034C74.2791 242.034 78.4943 245.339 91.5554 240.033C104.615 234.726 110.799 240.432 110.799 241.483V191.374C110.799 190.323 104.454 184.618 91.3948 189.924Z" fill="white"/>
<path d="M151.823 194.482V244.301H71.5717V194.482H69.7683V247.069C69.7683 247.069 93.6731 247.069 105.592 247.069C106.647 247.069 108.804 248.52 112.075 248.52C115.478 248.52 117.018 247.069 118.064 247.069C130.081 247.069 154.075 247.069 154.075 247.069V194.482H151.823Z" fill="white"/>
<path d="M127.794 85.2313L128.039 86.8458C126.596 86.3935 126.856 86.6031 126.297 85.2086L125.819 85.875C125.782 85.9172 125.677 86.0227 125.612 86.1056C122.674 85.4755 121.789 85.8297 124.163 83.3228C125.959 83.3891 126.9 84.3132 127.794 85.2313ZM126.875 87.6025L127.619 89.6949C125.885 89.7522 126.193 89.8999 125.338 88.7949L123.433 89.4507C121.93 89.3557 122.947 89.3195 122.509 89.1009C122.219 87.8739 122.593 87.4005 123.936 87.6824C126.228 88.1618 124.937 88.0367 126.875 87.6025ZM88.5403 88.9065C87.8006 89.2924 87.6209 89.3165 86.5601 89.1371C85.1045 88.8884 85.0131 88.299 84.8495 88.0804C86.6131 87.91 87.3631 87.9327 88.5403 88.9065ZM102.033 38.5267C101.682 38.0684 101.517 39.1945 101.519 36.2172L101.601 19.9048C101.765 18.9898 101.706 19.4813 102.033 19.0124C103.464 19.8325 102.753 19.3034 102.787 22.4947L102.661 25.9182C102.628 26.9975 102.647 25.7373 102.793 27.0036C103.02 28.9904 102.524 28.4658 102.668 29.7351C102.837 31.2275 103.06 29.7049 102.749 32.3807C102.4 35.4092 104.193 37.3388 102.033 38.5267ZM112.149 46.5947C112.149 44.5807 111.62 41.1723 113.278 39.9091C113.387 40.001 113.83 40.2135 114.064 40.7788C114.385 41.5537 114.198 40.9612 114.228 41.8024C114.262 42.9059 114.129 42.3662 114.139 43.6642L114.276 48.366C113.079 47.8564 113.575 48.2529 112.707 47.4796C112.065 46.9052 112.452 47.4012 112.149 46.5947ZM115.264 101.526C114.631 104.147 114.194 105.6 111.113 105.186C109.778 102.931 110.089 99.7889 110.699 97.0167C111.346 94.0681 112.052 92.7083 113.643 91.1526C115.261 93.1425 115.411 98.491 115.264 101.526ZM77.6965 186.742C77.8365 186.509 77.9824 186.175 78.1371 185.704C77.4873 185.864 76.842 186.035 76.2173 186.105C76.5311 186.228 76.8258 186.384 77.0895 186.571C77.2604 186.647 77.4682 186.701 77.6965 186.742ZM77.1543 90.9174C77.6538 89.5034 76.6107 89.5592 77.3665 88.4829C79.0653 89.5788 77.835 91.4993 77.3208 92.3661C79.8874 95.8484 77.5212 93.2329 80.7051 95.5695C78.8767 95.372 78.6763 94.2836 77.6523 93.456C73.1498 89.826 75.0342 94.457 74.2519 88.9939L75.5455 91.4194L77.1543 90.9174ZM71.5984 90.3944C71.5365 90.325 71.4526 90.227 71.4231 90.1863L70.8588 89.3633C75.7915 89.3557 73.082 90.1366 74.1045 92.5651C74.6732 93.9038 74.7675 92.8545 74.7896 94.9047C74.6968 94.867 74.5819 94.8067 74.5156 94.7796C74.4567 94.7525 74.3255 94.6937 74.2519 94.6575L72.2599 93.9731C72.6135 94.9288 73.0393 95.5092 73.113 96.8177L72.7432 96.3187C71.703 94.9409 70.1398 94.0862 69.0245 94.552C68.7549 94.0364 68.0079 95.5394 69.0304 93.3777C66.9279 93.8073 67.7014 93.7002 67.1416 93.3626L67.143 92.2485C68.1346 91.7089 67.6749 91.9184 69.0245 91.8551C69.3442 92.5772 68.2613 93.4364 71.927 93.8721C73.0585 92.1732 73.5064 92.9284 73.25 91.2551C71.9579 91.9305 71.538 92.14 70.1781 91.0622L71.5984 90.3944ZM86.6632 112.064C85.8161 111.746 84.5505 110.338 83.914 109.678C77.6744 103.253 86.0901 100.641 71.4658 101.299C72.2982 99.5191 73.9661 98.7518 76.1805 97.6529C75.5676 97.6242 75.9005 98.0237 75.3245 97.5142C74.6261 96.8916 75.4438 94.8203 75.9153 94.0666C77.1602 94.8007 77.2516 95.0389 77.8114 96.8267L79.9065 96.3926C80.4649 97.4237 79.3982 96.4921 79.9065 97.3966C85.7144 94.9876 84.8186 96.6835 90.043 96.881C91.5046 96.9353 91.9849 96.9805 93.0826 97.8594C89.4007 98.2754 88.6891 97.5518 85.6614 97.2368C83.4705 97.0061 81.1736 97.5564 79.7327 98.9809C88.5358 98.3026 91.1982 97.3755 95.0995 104.171C95.7478 105.299 96.4285 106.463 98.335 106.265C100.239 106.066 100.1 105.15 100.675 103.473C101.083 102.272 101.936 100.568 102.578 99.8568C102.927 99.4754 103.464 99.0141 104.138 98.8166C107.063 97.9589 105.999 101.096 107.439 104.542C108.592 107.301 108.144 107.037 107.013 109.591C103.185 109.634 104.831 107.833 101.735 109.649C102.378 110.067 103.309 110.884 103.972 111.427C104.8 112.103 105.095 112.434 105.625 113.445C106.447 115.014 107.171 117.167 106.916 119.219C105.416 114.466 104.938 112.605 98.7917 110.774C97.2418 110.31 93.3993 111.485 88.3148 106.288C86.7855 104.726 85.0352 102.376 81.7143 102.365C81.9382 103.457 82.6278 104.046 83.0757 104.964C84.7656 108.41 85.128 109.441 89.2092 110.561C90.32 110.866 91.2851 111.368 92.2265 111.621C95.543 112.501 91.0375 110.724 94.021 111.547C95.4679 111.944 98.9022 112.489 99.8967 113.608C97.4628 113.49 97.2329 113.003 94.631 113.635C92.6081 114.13 92.4991 114.571 90.6619 113.545C86.9299 111.476 88.7392 112.841 86.6632 112.064ZM71.563 95.8966C73.7421 98.0056 72.8021 96.5418 73.751 97.38C74.3167 97.879 73.9278 97.5639 74.1546 98.1594C73.7436 98.0373 73.0482 97.8775 72.7108 97.7448L71.563 97.0514L71.2021 98.1187C69.6227 95.8243 71.3892 98.7081 68.889 97.074C69.3928 95.8122 69.3044 96.4484 70.0529 96.266L71.563 95.8966ZM90.6619 109.976C87.0154 109.678 84.8864 107.007 83.8197 104.118C85.7601 104.45 86.3435 106.247 87.338 107.287C88.2176 108.21 89.4965 109.075 90.6619 109.976ZM63.9356 109.663L63.856 110.545C66.1647 110.344 65.35 110.486 65.9496 111.008C64.2347 111.386 63.0104 112.12 61.2939 112.52C61.5076 110.561 62.3238 110.074 63.9356 109.663ZM81.8558 108.82L83.0432 111.258L81.3975 111.442L81.8558 108.82ZM83.584 116.376C82.8193 115.32 81.5743 116.014 80.0612 116.245L81.4211 115.313C82.3508 114.739 81.9913 115.464 82.3655 114.518C81.153 113.949 82.0016 114.466 81.0793 114.601L79.9272 114.541C82.8473 111.647 86.899 116.178 91.7875 115.173C94.0343 114.713 94.7077 113.878 97.6617 114.145C99.3545 114.298 101.64 114.98 102.532 116.492L99.2543 115.399C104.759 118.338 102.416 122.299 96.8779 122.858C93.1783 123.23 92.7201 122.864 89.9709 121.616C86.4098 119.994 84.6948 123.076 84.2587 123.177C81.4285 122.953 78.1724 120.622 80.2616 118.165C80.7581 118.158 80.2631 118.284 81.3578 119.207C82.7898 119.02 83.9597 119.205 84.7523 118.231C83.419 117.389 84.2278 117.859 82.8016 117.788C81.2649 117.717 81.6082 118.029 80.8907 117.487C82.5556 116.649 82.507 117.577 83.584 116.376ZM75.4379 118.572L78.8796 118.729L78.8634 121.24C77.8483 121.646 76.8774 121.329 75.5101 121.236L75.4379 118.572ZM103.443 127.136C103.705 122.053 104.622 123.642 105.21 121.485C105.613 120.013 104.992 120.75 105.811 119.565C106.951 121.192 106.319 119.745 105.448 124.406C105.086 126.351 104.744 125.151 103.72 128.14C103.699 128.199 103.624 128.452 103.608 128.399C103.593 128.348 103.533 128.565 103.43 128.751L102.095 127.881L103.443 127.136ZM66.8587 133.065C64.7224 133.291 63.2711 131.833 61.2379 131.048L61.3646 129.001C62.5183 130.137 62.1912 130.532 63.666 131.503C65.1909 132.509 65.7272 132.129 66.8587 133.065ZM62.5949 137.788C63.6999 140.155 63.2682 144.602 63.6144 147.555C64.0152 150.938 64.7209 153.666 65.3441 156.809C63.94 156.292 61.8538 155.299 61.4899 153.861C62.0895 153.3 61.4029 153.007 63.087 153.686C63.2048 149.686 61.7993 147.407 62.5949 137.788ZM103.96 175.594C104.968 172.226 110.819 173.482 108.822 168.246L112.833 166.516C108.501 174.51 108.731 173.673 103.96 175.594ZM69.6374 175.689C69.7862 175.722 69.9041 175.713 69.935 175.852L70.5789 176.777C70.8234 177.257 70.931 177.611 71.1402 178.049C74.8368 185.751 72.5119 181.649 76.6313 183.841L73.2515 184.536L69.6374 175.689ZM98.3954 161.629C101.173 161.853 105.242 160.02 107.888 159.102L116.75 156.303C114.993 156.331 110.642 157.486 108.106 157.83C104.168 158.365 102.612 158.128 98.8993 157.7C99.3118 160.478 99.1807 159.598 98.3954 161.629ZM103.356 151.161C103.904 154.77 110.172 155.879 114.263 154.904C118.284 153.948 121.793 151.233 123.866 149.101C129.381 143.438 130.748 135.096 130.576 124.922C128.949 127.664 128.512 136.194 125.29 143.145C122.782 148.56 118.906 151.776 112.192 153.431C111.775 152.7 113.398 152.817 111.405 151.724C114.543 151.134 117.524 149.579 119.644 148.122C124.074 145.07 124.185 144.397 124.622 141.104C123.041 141.85 123.611 141.915 122.39 143.132C113.535 151.967 109.251 149.982 103.356 151.161ZM61.3514 119.769L62.4505 119.731C63.3286 118.86 65.487 118.414 66.7865 118.182C68.6164 117.856 70.6378 117.738 72.6621 117.827L72.0389 117.105C70.8249 117.166 69.6772 117.205 68.5943 117.337C67.3817 117.491 66.5905 117.924 65.8833 117.487C67.6941 116.311 67.6956 118.016 67.7781 115.767C65.3898 116.573 63.6233 116.355 63.1665 117.487C64.0417 117.811 63.2078 117.506 64.0947 117.609L61.3514 119.769ZM68.6709 131.22C66.7217 128.674 66.2664 125.148 62.3267 124.878C63.0649 127.653 66.2841 129.994 68.6709 131.22ZM105.149 148.082C102.836 148.137 98.2068 147.207 96.9014 147.403C93.1032 147.966 98.1125 149.92 99.5387 150.142C106.655 151.227 108.875 149.962 113.059 147.321C117.247 144.682 118.17 145.606 122.365 140.138C124.322 137.578 127.312 132.97 128.49 129.723C127.619 130.374 120.718 138.569 117.951 140.819C112.511 145.235 112.647 143.393 110.135 145.09L109.8 145.343C108.532 145.973 104.99 145.331 102.868 146.127C103.412 147.226 102.938 146.42 103.897 147.112C104.411 147.482 104.022 147.169 104.647 147.638C104.707 147.689 104.85 147.932 104.9 147.856C104.943 147.779 105.074 147.999 105.149 148.082ZM96.5257 48.0419C97.9828 48.0871 98.086 48.1007 99.2352 48.8227C99.272 48.8725 100.449 54.717 96.5375 53.2773L96.5257 48.0419ZM111.088 72.1765C109.485 72.6378 106.955 73.3614 105.208 74.0217L105.392 71.6052C105.494 69.4631 105.716 68.7048 106.637 66.8793C107.585 65.004 107.107 61.493 109.497 54.9491C110.076 53.3647 109.82 53.2879 110.936 53.3211L110.745 58.5806C111.219 63.6533 110.735 67.3179 111.088 72.1765ZM63.5732 113.401C64.5176 113.952 63.386 113.628 64.8107 113.671C66.0528 113.712 68.2097 113.401 68.0772 111.779C67.2565 112.973 65.3839 112.156 63.5732 113.401ZM111.697 74.9036C111.672 74.8598 111.651 74.8131 111.627 74.7679C111.582 74.8915 111.645 74.988 111.697 74.9036ZM111.595 73.4006C111.704 73.9358 111.772 74.3126 111.813 74.5704C111.919 74.5146 112.077 74.4739 112.304 74.4799L111.742 74.4649C111.736 74.2297 111.697 73.8875 111.595 73.4006ZM125.534 181.86L126.399 175.366L124.733 181.758L125.534 181.86ZM158.487 190.424C163.031 184.768 172.01 184.942 170.108 177.751C168.476 171.582 158.286 168.185 152.789 167.117C153.868 165.209 153.881 166.036 154.28 163.157C154.594 160.911 155.374 160.87 154.034 158.948C152.428 156.643 149.586 147.591 146.641 142.741C145.311 140.55 143.101 140.54 140.642 139.963C137.895 139.318 138.731 138.582 139.845 137.301C141.031 135.941 140.312 136.799 140.805 135.198C141.546 132.786 141.86 132.908 141.271 130.039L138.903 129.364L138.607 126.898C139.842 127.444 139.369 127.529 140.119 128.725L140.272 123.018L139.132 125.015L138.411 123.672C138.23 122.787 138.252 121.4 138.815 120.637L139.516 120.181C139.553 120.165 139.684 120.137 139.715 120.126C139.749 120.119 139.858 120.119 139.921 120.086L139.825 118.058L137.963 117.262L138.327 114.882C139.47 115.361 139.037 115.405 139.69 116.495C139.551 113.878 138.746 111.283 137.43 109.482L135.294 109.967L134.521 108.207C134.67 109.31 134.984 109.015 134.735 109.848C134.548 110.469 134.146 109.205 134.152 111.689C133.629 109.746 133.134 110.017 132.658 107.975C132.254 106.236 131.98 105.748 130.885 104.67C129.185 103.003 126.815 101.783 123.759 101.361C126.088 107.864 127.323 112.719 124.814 120.01C123.374 124.199 121.194 127.168 117.982 129.352C117.353 129.783 115.228 130.819 114.783 131.461C124.118 132.816 127.201 120.811 127.729 113.688L128.497 115.655C128.888 118.072 128.288 120.657 127.697 122.96C126.981 125.748 125.07 127.294 123.427 129.363C119.502 134.295 116.946 135.546 108.626 135.695C111.946 138.248 117.208 137.173 120.772 135.18C122.546 134.186 122.529 133.837 123.747 132.653C128.643 127.894 130.661 120.848 132.254 119.18C131.989 137.007 130.081 155.018 128.857 172.791C128.692 175.166 128.362 178.79 128.145 182.346C129.185 182.582 130.221 182.872 131.232 183.199C130.987 177.088 130.697 171.029 131.011 164.625C131.447 155.703 132.043 146.824 132.348 137.978C133.52 151.385 131.604 168.928 132.487 183.629C133.023 183.822 133.552 184.024 134.075 184.236C134.678 184.482 135.613 184.833 136.714 185.199C134.908 171.165 134.007 156.986 133.915 142.723C133.884 137.786 133.226 130.024 133.785 125.458L135.494 127.756C135.54 124.581 135.537 121.405 135.545 118.231C135.562 113.655 134.765 110.518 136.858 109.892C137.375 110.995 137.199 112.877 137.194 114.148C137.174 118.47 137.679 123.277 137.076 127.51L135.355 128.25C136.92 133.231 137.381 137.89 137.449 143.468C137.524 149.474 138.133 154.892 138.371 160.677C140.113 160.665 140.503 161.265 141.449 161.969C141.837 161.098 141.76 160.729 141.349 159.875C146.087 160.098 145.96 164.38 138.566 161.289C138.685 163.679 138.756 162.862 140.388 163.511C139.811 165.069 139.5 164.347 139.037 165.825L141.073 165.001C140.381 165.717 140.179 166.026 139.079 166.291C139.487 170.708 140.833 180.287 142.17 186.653C143.721 186.927 145.127 187.004 146.04 186.701C147.777 185.603 149.852 185.504 151.721 186.452C152.638 186.918 153.385 187.575 153.934 188.367H154.062C155.823 188.367 157.405 189.164 158.487 190.424ZM111.507 77.3803L107.804 77.9185C107.806 80.4978 107.378 78.5742 108.715 79.8496C109.775 80.8641 108.67 80.6093 110.41 81.0736C110.817 80.3093 110.93 80.1104 110.88 78.9843C111.448 80.2129 111.231 79.7878 112.122 80.0003L111.507 77.3803C113.067 78.7069 112.847 78.0828 113.278 79.4184C117.933 78.1642 118.584 78.6572 121.073 81.3766C117.024 80.038 119.044 79.8571 113.641 80.0199L113.471 80.5249C113.451 80.5792 113.409 80.7164 113.381 80.7872C112.376 83.4735 112.363 82.5223 112.747 85.7604C113.192 89.5215 112.622 87.3493 113.538 90.0838C113.796 90.8647 114.197 89.9361 113.643 91.1526C110.973 91.2642 109.823 91.638 106.712 91.3968C106.132 94.5716 104.414 96.8855 101.391 97.5322C102.387 92.7641 102.25 94.5339 101.204 90.1215C100.399 86.7252 101.693 85.388 97.616 85.1046C98.4278 87.5814 98.7549 86.291 100.426 87.5814C101.33 92.7822 99.331 96.0956 95.0347 97.0318C94.08 97.2413 84.7184 95.1369 82.5188 94.7464L82.4701 93.7379C80.4797 92.7204 78.8192 86.7372 77.3989 84.4248C76.4781 82.9324 75.4688 82.1967 73.39 81.4611C69.3928 80.0486 70.598 79.337 69.0245 78.5803C68.444 80.7284 68.998 80.6455 67.9504 82.952L69.3855 80.6847C70.6673 83.9107 74.1045 82.6218 72.9215 87.3779L67.006 88.905C67.3493 87.3734 66.8675 87.2166 66.7394 86.0709L66.5449 84.1218C66.1073 85.1393 65.434 85.9217 65.2808 87.2045C65.1776 88.0698 65.3191 88.296 65.3176 89.0211C65.3147 90.6657 65.1364 89.5125 65.0627 91.1345C67.0723 92.8335 65.6093 90.4245 67.3965 94.6424C67.4318 94.7253 67.4701 94.8233 67.504 94.9077C68.9007 98.283 68.528 95.8695 68.5162 98.2995C68.5074 99.8718 68.7416 100.044 69.6566 100.846C69.135 101.991 69.8657 101.153 68.6385 101.857C70.3623 101.874 69.9291 101.866 70.405 102.213C69.1497 104.103 68.8698 105.921 65.4458 105.195C65.487 103.931 65.3485 104.436 65.9938 103.633C66.0528 103.63 66.1323 103.654 66.1485 103.723C66.1662 103.796 66.2782 103.805 66.3018 103.824C66.4624 103.927 67.2314 105.222 68.0609 103.904C68.0933 103.856 68.1405 103.74 68.1552 103.68C68.1744 103.627 68.1847 103.5 68.1906 103.439C68.3203 102.15 67.8296 103.212 67.9062 102.029C67.9062 102.021 67.9475 101.973 67.9357 101.943C66.4491 102.537 66.4962 103.013 65.3677 103.734C64.0019 104.605 63.5231 104.56 62.4829 105.608L64.6192 104.293C65.017 104.976 65.1364 106.817 68.4617 105.774C69.1792 105.549 69.8142 105.177 70.2709 104.664C71.6735 103.081 70.128 103.852 71.5689 102.9C73.8393 101.949 77.5522 102.78 79.1257 104.127C76.4678 105.308 73.2338 106.606 70.0956 107.053C65.6196 107.696 61.8803 109.773 61.2291 109.47C60.1197 114.61 58.723 115.608 57.1023 119.012C57.8596 119.795 58.6846 121.126 58.8998 122.312C58.141 122.745 58.1012 122.639 57.4161 123.076C56.9019 122.801 57.2363 123.004 56.7457 122.629L54.8054 121.263C53.223 120.585 52.1283 121.013 50.9261 120.435C50.4841 121.423 49.9684 122.047 49.3525 122.635L52.5069 124.136C53.1832 124.094 52.0605 123.616 54.3722 124.739C53.5678 122.808 53.2966 123.289 52.2889 122.018C54.5033 122.672 56.2006 124.664 57.0964 126.47L54.2072 125.79C54.7449 126.827 55.0205 126.795 55.7556 128.007C50.8347 128.246 52.9489 128.571 48.9371 126.99L49.5765 128.095C50.1747 130.184 45.3554 133.642 43.474 134.052L44.1708 137.456C43.2544 136.938 42.9642 136.216 42.0699 135.551C42.4441 138.34 42.8168 138.747 42.1199 139.306C39.5254 141.403 42.5472 145.96 40.7306 148.443C36.5301 144.76 41.5129 134.779 42.9391 131.251C40.9428 133.436 40.1339 135.73 39.1394 139.264C36.4064 148.967 40.9177 147.455 41.6028 152.921C42.2201 157.882 43.3561 162.966 45.155 167.517C46.8052 171.688 48.8988 175.422 51.6127 178.734C53.8006 181.405 58.253 185.151 61.3661 186.938C62.7157 187.717 63.7868 188.315 65.1938 188.964L66.3681 189.469C67.2432 188.837 68.2937 188.442 69.4282 188.377C69.6904 187.993 70.0013 187.645 70.3564 187.329C67.9504 184.973 64.4748 180.739 63.3949 179.281C57.6592 171.567 52.977 162.316 49.1036 153.086C47.063 148.224 45.6795 142.426 41.5674 140.271C43.1513 139.053 44.0102 140.438 45.0475 141.587C46.1142 138.038 44.218 139.527 47.2324 137.129L54.658 130.997C57.0522 128.968 56.4039 129.724 59.2946 128.574C57.1288 141.754 58.7686 149.691 62.5374 160.89C63.579 163.983 65.8774 172.027 67.7574 174.469C68.7003 175.695 72.0257 182.447 73.3296 185.873C73.6301 185.817 73.9277 185.787 74.2224 185.777C75.1226 185.407 76.1038 185.597 77.2221 185.24C79.1507 184.622 77.9647 183.933 79.5426 184.628C80.6005 185.531 80.0067 185.312 80.3971 186.716C81.3504 186.607 82.255 186.719 83.0948 187.045C83.8919 186.202 84.9409 185.594 86.1476 185.338C87.2806 185.1 88.141 184.67 89.2077 184.236C90.4158 183.748 91.6578 183.303 92.9249 182.929C94.2067 180.094 95.7331 181.3 97.6278 181.878C98.3792 181.768 99.135 181.687 99.8893 181.637C98.6886 179.702 96.2104 180.347 93.4877 180.094C94.3968 179.287 96.3887 177.704 97.4289 177.499L92.5904 178.812C91.1569 176.708 87.7049 172.124 86.8224 169.46C90.9182 170.22 90.488 178.66 95.188 176.206C97.3788 174.1 89.8633 167.355 87.1936 166.103L91.7551 162.844C94.1802 167.469 97.339 172.912 99.135 177.986C99.6212 179.359 99.4753 179.46 100.231 180.573C100.483 180.948 100.682 181.286 100.838 181.594C103.086 181.529 105.335 181.758 107.52 182.364C108.849 182.733 110.313 183.309 111.675 184.096C112.072 183.865 112.48 183.653 112.892 183.457C114.019 181.315 117.065 176.005 117.37 174.376C117.764 172.285 117.537 170.167 118.397 168.387C118.968 167.205 120.441 164.755 121.195 163.887L121.067 167.037C123.248 165.874 123.682 163.294 124.702 161.087C125.735 158.849 126.8 156.872 127.609 154.774C126.121 156.146 124.968 158.057 123.498 159.865C120.646 163.373 118.169 167.3 115.576 171.055C112.137 176.035 114.589 175.732 113.278 178.868C111.716 178.764 111.753 178.633 110.789 177.615C111.168 174.435 115.072 167.043 117.254 164.986C118.638 163.688 121.033 161.906 122.138 160.32C122.682 159.541 124.898 154.51 125.111 153.656C122.308 156.484 120.909 159.411 116.958 160.961C115.228 161.638 113.292 162.548 112.027 163.71C111.464 164.226 108.969 167.551 108.547 168.219C105.439 167.101 106.209 169.255 104.601 168.335C105.708 167.245 107.19 166.752 108.393 165.562C112.352 161.645 110.315 162.794 115.53 159.506C116.931 158.624 118.088 157.902 119.296 156.999C117.944 157.329 110.894 160.129 109.603 160.863C107.959 161.791 107.72 163.032 105.749 163.98C102.422 165.584 103.755 164.38 100.794 163.718L99.5667 165.675L96.9132 164.716C97.504 155.956 97.6602 158.547 94.852 156.494C95.2071 156.331 95.3883 156.328 95.82 156.045C96.6598 155.499 96.2296 155.856 96.6215 155.345C95.045 154.099 96.0867 154.041 93.3419 154.061C88.3148 154.093 89.6644 152.368 85.9649 152.976C84.7008 153.184 82.9092 153.369 82.0723 153.904L92.4431 156.658C89.2681 157.293 87.4338 156.898 84.5284 156.491C85.3785 158.375 87.9126 161.87 90.043 160.854L91.5724 160.227C92.038 160.098 91.9245 160.192 92.474 160.002C93.0472 159.8 92.8203 159.821 93.2092 159.654C95.6727 158.606 94.8889 162.572 92.0453 162.131C90.3333 161.867 92.2678 161.167 88.3723 163.64C87.176 164.398 80.9231 168.254 79.6649 165.087C80.9408 164.23 81.4992 164.745 83.192 164.922C82.8384 164.083 82.9166 164.208 82.255 163.652L84.7066 162.97C79.712 161.719 80.7758 161.223 79.4041 156.607C73.8143 154.812 75.1491 155.483 73.4784 149.671C72.4588 146.133 71.843 142.482 69.7125 140.091C70.0868 143.741 71.0488 147.645 71.6264 151.186C68.8374 148.93 67.9077 140.144 64.1109 136.211C64.4262 139.288 65.5857 138.285 66.5287 141.207C67.7589 145.018 68.7549 149.062 70.956 152.257C71.9564 153.713 73.3016 155.963 72.9509 158.158C71.3995 156.758 70.2444 153.419 68.69 151.634C68.8226 153.447 69.2794 155.082 69.938 156.637C71.1328 159.458 71.1756 158.617 73.0393 160.142C74.246 161.13 73.9101 162.908 75.0239 164.432C76.4486 166.383 77.172 164.669 78.7573 167.212L75.1167 166.858C74.1797 164.449 72.0655 163.606 70.542 161.654C70.9619 160.079 70.8927 161.148 71.6308 159.792C69.0554 159.235 69.3619 159.396 68.7475 156.83L67.0311 156.328C66.3961 152.517 65.6624 148.833 64.9507 145.055C64.3526 141.881 62.922 136.223 63.0384 133.259C63.7736 133.801 63.1872 133.261 63.7735 133.912C64.1964 134.381 64.2096 134.508 64.4439 134.815C65.0848 135.665 64.6546 135.5 65.8156 135.979C67.9681 136.871 67.5511 135.798 69.2337 137.693C70.4801 139.098 70.377 139.27 72.6268 139.298C74.0677 139.316 76.3912 139.472 77.3282 139.013C75.7871 138.095 73.6522 137.899 71.9859 137.091C69.1822 135.733 69.5873 135.19 68.665 133.145C68.195 132.1 65.7935 130.541 64.6561 129.748C62.4667 128.218 61.4412 128.873 61.3278 125.579C60.4246 127.085 60.9978 127.456 59.4906 128.603C60.0946 125.209 61.4133 125.5 61.0331 122.296C60.9786 121.846 60.9035 121.287 60.9521 120.853C61.0685 119.884 60.8445 120.358 61.3514 119.769C60.6633 119.27 60.6736 120.408 61.1053 116.573C61.2291 115.459 60.9433 114.44 61.4029 112.939C63.6675 110.576 69.2794 110.426 73.4091 110.83L73.5815 108.704C72.4559 110.613 72.2938 110.029 66.592 110.649C68.0094 108.679 68.0492 110.98 68.4764 108.691C67.0723 109.158 65.515 109.842 63.9356 109.663C65.7331 108.267 69.0098 108.074 71.5763 107.964C75.1654 107.807 75.0696 105.938 78.3153 105.667C75.6604 109.673 75.6722 112.385 75.2906 118.259C75.0342 122.225 75.1108 121.721 73.7421 121.803C73.0983 120.934 73.3664 120.695 73.3414 119.391C71.1004 119.309 65.3441 118.637 64.354 120.829C65.3544 122.366 65.1099 120.788 66.315 121.57C65.3132 122.276 64.2582 122.208 63.3772 121.774C63.0236 120.342 63.6203 119.997 64.3909 119.391L62.4505 119.731C62.3989 119.793 62.2884 119.781 62.2649 119.89C62.2428 120 62.116 120.019 62.0866 120.06L61.5105 121.513C61.4869 122.109 61.7492 123.471 61.8096 124.206C64.7356 123.664 66.4373 122.805 69.9085 122.502C71.7398 122.339 73.0585 122.555 74.5849 122.538C77.0365 122.514 74.1546 121.843 78.5879 122.184L74.3933 127.448C75.8578 126.898 76.8818 125.705 78.4008 124.974C77.3252 127.327 76.811 127.311 75.0858 128.886L71.2021 132.492C70.2813 132.096 69.6846 131.68 68.6709 131.22L72.6739 133.992C72.6121 133.936 72.478 133.825 72.478 133.779L72.6533 132.816L73.0305 132.028C73.7789 131.12 77.6037 128.078 78.691 127.653C78.806 128.9 77.9824 129.12 75.6987 130.752L78.8222 129.602L81.4167 132.166L78.9047 132.148C82.0679 133.95 83.2878 133.612 84.6713 137.429C83.4469 137.028 82.2403 136.455 81.0925 137.158C82.9607 138.56 84.3678 138.537 84.8761 141.116C83.1169 140.286 81.8116 139.374 79.385 139.592C79.8874 140.197 81.0631 141.377 81.7585 141.983C81.6539 147.939 80.2454 145.012 81.5066 152.569C85.4536 152.284 86.4894 151.298 89.9945 152.826C90.2302 152.929 97.2211 154.946 96.869 151.023L90.4232 150.938L81.4889 125.023C83.0109 123.56 83.5589 123.978 86.0989 123.913C88.4224 123.857 89.4508 124.459 89.3565 126.896L87.6577 127.412L89.5598 134.536C91.8552 132.864 92.1897 133.166 94.1448 134.449C95.5415 135.368 94.9051 134.345 95.6683 135.677L95.1924 135.757C94.6148 135.705 95.1614 135.9 94.4881 135.628C93.9695 135.415 93.6247 134.982 93.0973 134.75C91.4265 134.001 90.9197 134.396 90.0991 135.399C89.769 135.907 92.5374 144.635 93.7824 145.811C94.9507 141.992 97.4362 139.686 101.025 138.361C100.664 138.076 100.862 138.157 100.256 137.905L97.2255 138.068C97.2285 139.304 97.4127 137.845 97.3184 138.575C95.8834 139.264 95.8981 139.432 94.6914 140.286C94.3452 138.624 93.887 138.78 92.7437 137.773L91.6903 136.657C94.0638 137.024 92.7923 137.411 94.8948 138.343C95.8038 137.106 96.7187 136.458 98.4691 135.747C100.85 134.78 101.579 134.893 103.106 136.458C102.72 133.858 101.579 134.033 99.0112 133.647C99.2617 133.338 98.6694 132.988 100.247 132.771C101.579 132.584 100.594 132.911 101.843 133.317C103.275 133.782 103.813 133.229 104.937 132.819L105.889 134.303C107.53 133.678 108.044 132.807 110.138 132.09C111.881 131.49 111.107 132.159 112.047 130.709C112.78 129.575 112.419 129.878 113.475 128.82C116.348 125.939 118.478 127.433 120.442 122.962C123.112 116.885 123.488 110.424 119.614 105.082L118.275 102.855C119.941 103.117 119.763 103.004 120.26 104.5L120.731 102.89C121.144 103.526 123.502 107.375 124.077 108.074C124.963 102.413 118.83 98.6282 117.477 98.3222L118.794 100.425C116.682 100.398 116.682 99.3186 115.742 98.1865L115.323 96.3489C116.884 95.5258 120.923 94.968 122.941 97.5383C124.124 96.1002 122.876 97.2865 123.364 95.1851L120.87 94.7464C120.031 94.5459 119.787 94.5851 120.024 93.5766C122.113 92.7822 120.498 94.3726 121.79 93.5103C123.097 92.645 121.07 93.6746 122.274 93.046C122.399 93.851 121.846 94.4193 125.574 95.1082C124.724 92.8169 123.48 94.5686 123.152 92.6314L127.289 92.4008C127.1 93.5269 126.722 93.5812 126.159 94.5912C127.277 95.0811 129.559 97.8217 128.876 99.1543C126.037 99.1799 129.783 98.9674 125.873 96.7876L124.406 95.8122C124.414 98.8709 124.462 96.7604 127.831 99.6156C128.487 100.173 128.905 100.268 129.788 100.657C129.589 97.1388 127.989 95.3072 128.333 92.5199C128.454 91.525 128.462 91.3817 128.453 90.4577L128.465 89.3768C128.478 89.309 128.516 89.211 128.531 89.1447C128.879 87.6477 128.893 87.1066 127.794 85.2313C126.929 83.7705 124.509 82.1168 122.175 83.1736C122.141 80.6259 123.337 81.4128 124.133 79.2421C124.416 78.4748 124.438 78.1612 124.596 77.424C114.976 76.2753 119.088 77.2236 115.47 77.8175C114.346 78.0044 114.493 77.7919 114.275 77.6471L117.286 76.4955C116.637 76.105 116.408 76.0734 116.105 75.1749L116.232 61.992C117.662 61.1072 116.663 61.79 116.993 61.1343L117.994 61.0484C119.516 62.6795 120.38 64.1492 123.339 64.2774L120.746 61.2323C119.14 59.8183 119.859 59.0389 118.363 57.6973L117.381 57.4319C116.258 57.3264 117.298 57.9234 116.36 57.3581C116.439 55.4828 116.198 56.6345 117.012 56.2214C119.105 56.6918 119.035 57.7229 120.532 57.6791C122.487 57.6188 121.432 56.2621 123.967 55.9832L127.224 54.0853L128.323 52.8115C126.24 52.9879 125.5 52.8582 123.7 52.706C120.354 52.4241 121.829 53.1221 119.81 53.5336C118.605 51.4955 118.695 51.3493 116.136 50.6332L116.295 39.9527C116.311 34.0299 119.274 43.1576 115.246 30.1496C114.366 31.3013 114.263 33.1284 113.641 34.3691L112.628 31.6843C110.998 33.1691 112.67 36.4539 108.662 35.9248L109.059 34.5093L105.227 28.0226C105.106 26.3041 105.232 24.4801 105.205 22.8369C105.134 18.0869 105.329 19.8566 105.924 18.3702C106.228 17.6271 104.578 11.9951 103.848 11.0801C102.637 13.1152 102.827 16.3397 101.61 18.1456L101.697 9.46408C101.814 7.1893 101.648 9.20331 102.711 7.3853C102.319 6.08284 101.946 4.92959 101.556 3.61959C101.083 2.02619 101.131 1.07347 100.075 0.000147615C99.6728 1.71565 98.167 6.47478 98.4617 7.83C98.4882 7.95813 98.6267 7.98977 98.662 8.03198L99.3133 26.179C99.2809 30.4451 99.9704 40.1789 98.2186 43.025C97.0311 44.9485 96.318 43.4169 96.0764 47.1886L95.157 47.3771L93.8708 47.3454L93.7839 44.7526L95.1939 45.0495C95.0716 43.8194 95.2528 42.5924 95.1614 42.2336C93.5982 41.5085 93.9312 42.1582 93.7603 40.6477C94.9979 40.5618 93.6896 40.3266 95.3721 40.815C94.2259 36.0725 96.6804 38.5372 95.6653 35.3308C95.132 33.6425 94.6944 30.9154 93.6925 29.5994L91.6033 36.8278C91.6225 38.5176 92.3193 35.9278 92.5079 40.5995L92.4829 47.8248C92.4431 48.7458 92.6597 48.7941 92.5993 50.2594C92.5742 50.8292 92.4829 51.0869 92.4785 51.4472L92.7054 55.8732C92.6906 64.1749 92.698 72.5926 92.8601 80.8867C91.9068 81.0736 91.014 81.2862 90.1698 81.6148L87.8714 83.0047C84.6949 84.7896 86.0857 85.1197 84.3118 88.5311C83.9744 89.1778 83.7711 90.2707 83.5206 91.1059L82.4701 93.7379C82.7177 93.0822 82.8311 92.8214 83.0521 92.1883C83.4779 92.7973 83.6488 92.5199 82.7442 94.4856C91.2026 94.1329 90.5499 95.8695 95.5032 95.9795C97.1018 94.2791 97.5364 93.3158 97.4127 90.2617L96.5051 92.5425C95.4782 94.8233 92.7849 94.4992 89.4449 94.0741C90.1963 92.0089 92.9573 92.3948 91.3396 89.1447L93.1135 88.2537C93.0104 88.0924 92.9057 87.895 92.8748 87.9583L89.3859 84.8303L89.7307 87.4472C88.4224 86.9422 86.7693 86.2805 85.5892 85.5689C86.3155 83.9695 86.7943 84.0735 87.8714 83.0047C89.1605 82.4801 89.7263 81.9646 91.2424 81.5304C92.6273 81.1339 93.7293 81.0691 95.1423 80.7752L97.2123 80.0425C97.1578 80.0742 96.978 79.9114 96.9132 80.0199L96.2753 79.8345C94.7268 79.4878 95.0936 82.9776 95.0922 74.4302L95.1585 58.7706L97.5777 59.669C96.8926 58.564 97.0031 59.158 96.5434 57.7289C98.0698 56.2033 97.7516 56.8199 99.244 55.9003C99.4739 59.7308 99.6772 74.6578 99.0407 77.81C100.286 77.2884 100.048 77.207 101.031 76.411C104.846 75.8683 105.84 74.0669 108.76 73.6101C109.929 73.4292 109.373 73.387 109.963 73.7563L106.403 77.4195C103.249 80.1375 102.69 74.8945 99.0216 79.5134C97.504 81.4188 94.6502 82.1168 95.0391 87.1548L98.9891 82.0791C100.894 80.0169 102.518 80.6033 105.918 80.3877C104.507 82.3776 103.081 80.2295 101.006 82.5208C102.104 82.4304 103.014 82.052 104.016 82.6007C103.026 84.2363 102.079 83.0047 101.872 84.8257C101.847 85.0579 102.451 88.0306 102.535 88.8673C103.829 85.1137 103.032 83.4087 107.113 82.2555C108.831 84.8604 107.559 88.2402 105.749 89.3602L107.474 89.2924C108.457 91.5461 106.577 90.7773 108.925 90.937C109.789 89.6029 109.724 84.1263 108.004 82.052C107.194 81.0737 106.061 80.6802 106.737 78.8893C107.474 76.9311 108.214 77.8145 109.308 76.0673L109.739 76.1789C109.935 77.2281 109.381 76.1367 110.349 76.7593C110.72 76.9989 110.768 76.8015 111.507 77.3803ZM83.5206 91.1059C83.8609 90.4155 83.9891 90.7757 84.2587 90.5165C87.3778 91.4209 87.0566 90.3205 89.2312 90.5315C88.2544 92.6209 84.3972 93.4093 83.5206 91.1059ZM123.152 92.6314C121.78 91.9064 121.818 91.5521 121.26 90.2526C119.971 90.2632 120.597 89.6406 119.253 90.2089C119.794 89.0467 119.216 89.508 120.264 89.1055C121.319 88.6984 120.307 89.7205 121.133 88.7784L121.425 88.2914C121.465 88.2296 121.527 88.0894 121.59 87.9975C121.755 89.7959 122.414 90.4682 123.162 91.3772C125.36 90.4999 124.185 89.9647 127.109 90.4939C126.157 91.0953 126.172 90.9114 124.988 91.2808C123.273 91.8174 124.328 91.6606 123.152 92.6314Z" fill="white"/>
<path d="M63.8812 197.626C63.3361 196.549 62.7483 195.454 61.521 195.858C59.974 196.371 59.943 198.632 59.7426 200.26C59.5997 201.448 59.7176 202.713 59.9475 203.899C60.6119 207.356 61.9792 210.437 63.8812 213.235V197.626Z" fill="white"/>
<path d="M149.14 242.034C149.14 242.034 144.924 245.339 131.865 240.033C118.805 234.726 112.622 240.432 112.622 241.483V191.374C112.622 190.323 118.876 184.618 131.938 189.924C144.997 195.229 149.14 191.936 149.14 191.936V242.034Z" fill="white"/>
</svg>
